PathFileType	4	(X/Y/Z)	E:\3-PhD\Data\MocapData\ElaboratedData\012\pre\dynamicElaborations\Run_baselineB1\Run_baselineB1.trc
DataRate	CameraRate	NumFrames	NumMarkers	Units	OrigDataRate	OrigDataStartFrame	OrigNumFrames
200	200	5	56	mm	200	684	93
Frame#	Time	FHD			LBHD			RBHD			C7			T10			CLAV			LSHO			LUUPA			LMUPA			LDUPA			LLEP			LMEP			LRAD			LUL			LRFIN			RSHO			RUPA1			RMUPA			RDUPA			RLEP			RMEP			RRAD			RUL			RUFIN			LASI			RASI			USACR			LSACR			RSACR			LTHI1			LTHI2			LTHI3			LTHI4			LLFC			LTIB1			LTIB2			LTIB3			LTIB4			LHEE			LMT1			LMT5			LMT2			RTHI			RTHI2			RTHI3			RTHI4			RLFC			RTIB1			RTIB2			RTIB3			RTIB4			RLMAL			RHEE			RMT1			RMT2			RMT5		
		X1	Y1	Z1	X2	Y2	Z2	X3	Y3	Z3	X4	Y4	Z4	X5	Y5	Z5	X6	Y6	Z6	X7	Y7	Z7	X8	Y8	Z8	X9	Y9	Z9	X10	Y10	Z10	X11	Y11	Z11	X12	Y12	Z12	X13	Y13	Z13	X14	Y14	Z14	X15	Y15	Z15	X16	Y16	Z16	X17	Y17	Z17	X18	Y18	Z18	X19	Y19	Z19	X20	Y20	Z20	X21	Y21	Z21	X22	Y22	Z22	X23	Y23	Z23	X24	Y24	Z24	X25	Y25	Z25	X26	Y26	Z26	X27	Y27	Z27	X28	Y28	Z28	X29	Y29	Z29	X30	Y30	Z30	X31	Y31	Z31	X32	Y32	Z32	X33	Y33	Z33	X34	Y34	Z34	X35	Y35	Z35	X36	Y36	Z36	X37	Y37	Z37	X38	Y38	Z38	X39	Y39	Z39	X40	Y40	Z40	X41	Y41	Z41	X42	Y42	Z42	X43	Y43	Z43	X44	Y44	Z44	X45	Y45	Z45	X46	Y46	Z46	X47	Y47	Z47	X48	Y48	Z48	X49	Y49	Z49	X50	Y50	Z50	X51	Y51	Z51	X52	Y52	Z52	X53	Y53	Z53	X54	Y54	Z54	X55	Y55	Z55	X56	Y56	Z56	
684	3.415000	-1743.263613	1762.967580	404.515471	-1901.469087	1733.748496	310.048365	-1880.511350	1726.917245	461.418591	-1938.421341	1568.850062	403.560276	-2095.903019	1252.738195	391.604437	-1816.012212	1461.837967	365.015018	-1844.532294	1586.274676	241.843067	-1995.669556	1527.500779	89.161524	-1986.901989	1486.134806	63.322591	-2046.907171	1496.002593	53.269612	-2100.428389	1445.036249	0.790505	-2132.630717	1419.027434	74.830213	-2105.882899	1176.891681	-93.382212	-2143.728186	1218.422001	-150.075801	-2122.896260	1101.769157	-140.146475	-1808.299801	1516.933275	528.941493	-1824.311716	1286.115780	610.050598	-1784.753934	1271.725596	585.902637	-1809.684488	1219.583776	596.595481	-1791.223847	1150.817528	578.357784	-1842.270039	1141.901725	503.168512	-1631.027488	1266.211931	373.872662	-1583.467909	1206.922845	387.394936	-1560.369672	1299.191575	334.212155	-1995.766966	1028.229658	242.917529	-2039.851200	985.838634	463.719840	-2154.148435	1139.665643	354.166978	-2173.225167	1116.386134	320.937480	-2177.436460	1111.984735	377.585769	-1958.512329	840.153575	173.389283	-1877.632503	819.981410	198.578801	-1854.762296	853.860818	224.986216	-1857.471586	765.048862	205.837095	-1765.470054	654.328593	241.392054	-1792.747160	468.994702	288.943733	-1805.324065	444.507394	206.853317	-1792.675568	426.278908	248.209508	-1833.587814	354.004290	260.401585	-1983.456302	197.961777	220.776089	-1789.535849	153.067750	279.715640	-1789.852282	160.497876	178.109024	-1762.572992	164.319314	232.152238	-2277.853673	746.719005	485.642142	-2274.260510	680.000170	481.274005	-2246.503115	662.443080	474.971928	-2340.020145	631.671296	462.789159	-2417.299153	536.943755	441.963370	-2486.415073	417.524981	405.860884	-2591.151234	429.705647	429.100522	-2568.226879	389.844816	420.840170	-2596.094273	348.911533	391.118494	-2768.434495	300.435868	375.427716	-2808.747772	322.378735	309.221457	-2726.847388	116.297331	325.969313	-2738.282868	118.669913	366.922461	-2786.398212	148.290772	404.849523	
685	3.420000	-1713.129933	1765.352770	401.135117	-1870.863518	1735.392285	306.181258	-1850.479215	1729.055267	457.674269	-1907.276719	1570.805309	400.999311	-2064.548248	1254.973407	391.872149	-1785.131296	1464.245538	361.860056	-1814.939572	1587.581398	238.127719	-1966.282771	1525.795200	85.733775	-1957.549858	1483.704641	61.373915	-2017.591869	1493.066244	51.061284	-2070.995179	1440.847844	-0.158794	-2102.325579	1415.210637	74.276755	-2071.622308	1171.861690	-91.832346	-2111.080988	1211.894229	-148.453659	-2086.026219	1096.205838	-138.344391	-1776.294288	1518.489134	526.156241	-1796.348626	1288.454684	609.779589	-1756.953556	1272.973800	586.246915	-1782.929516	1221.498099	597.303634	-1765.747884	1152.009471	579.965209	-1817.111097	1143.246057	504.917706	-1601.385429	1255.730911	372.364562	-1556.003498	1195.297740	388.094610	-1529.603487	1284.351142	331.385065	-1966.204838	1030.579370	242.749117	-2006.560224	988.694230	463.689350	-2122.735814	1142.406692	355.644720	-2142.074835	1118.925931	322.599875	-2145.373735	1114.518472	379.269533	-1929.766542	840.175642	171.732024	-1848.715634	819.156050	195.802698	-1825.404430	852.665508	222.506314	-1829.106497	764.107855	202.770744	-1737.403466	652.245966	236.724140	-1755.637106	465.035093	285.515449	-1767.239858	438.946737	203.601700	-1753.621854	421.930453	245.280695	-1790.029758	347.490403	258.787774	-1931.297398	182.735559	221.733943	-1734.703271	151.662116	283.641931	-1735.161259	155.091028	181.458620	-1708.321104	162.420391	235.536998	-2243.473771	747.171154	487.597007	-2239.628448	680.476658	482.323952	-2211.953356	663.166633	475.750508	-2305.503519	632.099225	464.141310	-2383.551918	538.451593	442.342408	-2456.916125	422.013066	404.733302	-2561.101409	438.314904	427.489727	-2539.807691	397.719856	418.997178	-2569.119650	358.348977	388.607701	-2743.226966	318.585607	371.920306	-2781.655975	344.883157	306.691377	-2712.317957	132.747291	318.698939	-2722.793798	135.440164	359.998237	-2769.305835	167.269435	398.489911	
686	3.425000	-1682.992915	1767.664502	397.786782	-1840.256648	1736.886336	302.365443	-1820.413503	1731.041703	453.969791	-1875.975638	1572.731120	398.399973	-2033.307867	1257.355474	391.813872	-1754.238030	1466.467067	358.727539	-1785.242076	1588.735642	234.350413	-1936.671087	1523.364730	82.192803	-1927.795232	1480.578685	59.383716	-1987.882172	1489.234225	48.759787	-2040.970222	1435.518707	-1.115637	-2071.573581	1410.345272	73.742144	-2036.068805	1165.544720	-89.380356	-2077.126095	1203.764943	-146.051743	-2047.466734	1089.378792	-135.547799	-1744.221206	1519.732290	523.480720	-1768.983052	1290.629748	609.533775	-1729.773154	1273.984100	586.638051	-1756.902306	1223.257927	598.068759	-1741.101303	1153.051757	581.663976	-1792.855401	1144.445617	506.965503	-1572.142297	1243.686016	371.402316	-1529.264705	1182.095902	389.600939	-1499.232285	1267.474981	329.350394	-1936.972808	1032.626797	242.413300	-1973.387687	991.541642	463.620908	-2091.606623	1145.020214	356.843255	-2111.137876	1121.288761	324.015312	-2113.501560	1116.952803	380.679315	-1901.447467	839.695292	169.871115	-1820.289042	817.618223	192.758781	-1796.482816	850.682729	219.773186	-1801.342458	762.404182	199.410777	-1710.179241	648.989752	231.759641	-1720.103793	460.539878	281.948782	-1730.961435	432.900757	200.333752	-1716.368574	417.080947	242.262957	-1748.559523	340.931933	257.158104	-1881.725433	168.991256	223.017328	-1683.346310	150.320407	286.989046	-1683.861714	149.981247	184.443197	-1657.509239	160.473849	238.405534	-2208.598369	747.002425	489.614080	-2204.271872	680.339352	483.525593	-2176.607974	663.411839	476.815533	-2269.991963	631.601577	465.659276	-2348.267750	538.729971	442.865068	-2425.921807	425.765998	403.484994	-2529.341031	446.442190	425.884495	-2509.816641	405.159425	416.991880	-2540.650951	367.619958	385.802822	-2716.431353	337.152598	368.129927	-2752.947013	367.630919	304.174358	-2695.535618	150.940284	310.506523	-2705.071031	153.597067	352.141177	-2749.944567	187.116727	391.485231	
687	3.430000	-1652.853965	1769.866499	394.475006	-1809.654217	1738.235334	298.604551	-1790.314502	1732.852308	450.305743	-1844.533887	1574.612219	395.746680	-2002.190013	1259.850212	391.474766	-1723.343953	1468.484926	355.602414	-1755.449718	1589.714884	230.516350	-1906.821434	1520.202863	78.562357	-1897.621826	1476.773172	57.363633	-1957.757274	1484.518789	46.382166	-2010.341758	1429.102712	-2.041603	-2040.333102	1404.486370	73.287965	-1999.184785	1158.064974	-86.011746	-2041.784712	1194.174320	-142.859924	-2007.211882	1081.445816	-131.734334	-1712.091680	1520.642764	520.886806	-1742.146879	1292.658438	609.289546	-1703.157960	1274.785653	587.027894	-1731.525228	1224.895982	598.859294	-1717.211310	1153.989344	583.432532	-1769.427164	1145.545790	509.282145	-1543.439309	1230.168926	371.102753	-1503.383743	1167.472008	391.986999	-1469.453425	1248.734511	328.311726	-1907.990174	1034.422138	241.926164	-1940.305733	994.321180	463.496604	-2060.768638	1147.390975	357.823973	-2080.441222	1123.362036	325.254427	-2081.848486	1119.172210	381.884946	-1873.560345	838.758255	167.856359	-1792.351145	815.453662	189.491518	-1767.986767	848.032172	216.768734	-1774.151568	760.035369	195.818214	-1683.690453	644.761077	226.593322	-1686.147959	455.670560	278.328374	-1696.495185	426.527187	197.134367	-1680.927858	411.864489	239.233321	-1709.306179	334.437145	255.550031	-1835.136663	156.755360	224.613942	-1635.615746	148.821368	289.631471	-1636.242786	145.016135	186.926397	-1610.329424	158.294336	240.610008	-2173.282815	746.267685	491.623288	-2168.269816	679.647696	484.808266	-2140.555738	663.212500	478.042532	-2233.610142	630.284848	467.261344	-2311.605477	537.921092	443.446459	-2393.489571	428.878357	402.128174	-2495.916997	454.100373	424.321540	-2478.256858	412.199010	414.896716	-2510.650057	376.716782	382.825225	-2687.896779	355.936532	364.215871	-2722.425524	390.379595	301.746391	-2676.293458	170.456899	301.724749	-2685.023301	172.762501	343.648630	-2728.289493	207.522555	384.033801	
688	3.435000	-1622.715314	1771.919053	391.207255	-1779.059382	1739.437754	294.898030	-1760.186858	1734.458449	446.682078	-1812.983000	1576.426809	393.022957	-1971.195551	1262.421895	390.893423	-1692.464902	1470.276667	352.476405	-1725.577792	1590.489254	226.630904	-1876.721387	1516.304844	74.869727	-1867.022508	1472.301340	55.335762	-1927.201635	1478.935476	43.951942	-1979.101114	1421.657245	-2.900413	-2008.566489	1397.691151	72.964097	-1960.941172	1149.567787	-81.723419	-2004.986570	1183.280743	-138.873562	-1965.268016	1072.584459	-126.882212	-1679.932887	1521.208064	518.346332	-1715.779701	1294.564493	609.022899	-1677.060506	1275.415104	587.371879	-1706.725138	1226.449294	599.644284	-1694.007869	1154.871005	585.249032	-1746.740442	1146.600727	511.817104	-1515.423733	1215.292585	371.585741	-1478.499010	1151.596947	395.321306	-1440.465621	1228.321342	328.456898	-1879.165776	1036.019761	241.306279	-1907.288697	996.986327	463.305509	-2030.212492	1149.414902	358.657185	-2049.999331	1125.049029	326.390820	-2050.430001	1121.066810	382.961067	-1846.091230	837.409952	165.747600	-1764.883845	812.754667	186.053162	-1739.885974	844.836754	213.485196	-1747.487869	757.101086	192.066143	-1657.834046	639.776586	221.317801	-1653.761796	450.580927	274.723598	-1663.848838	419.982437	194.070056	-1647.309898	406.413302	236.249109	-1672.376270	328.099480	253.990217	-1791.858331	145.990343	226.504978	-1591.593558	146.956118	291.482848	-1592.531821	140.026469	188.796635	-1566.912784	155.701831	242.033746	-2137.556053	745.024012	493.548857	-2131.675813	678.466815	486.101413	-2103.860930	662.604822	479.314489	-2196.455084	628.264627	468.862608	-2273.714119	536.189675	444.011657	-2359.668263	431.441811	400.687690	-2460.882397	461.299443	422.822388	-2445.135494	418.868848	412.781505	-2479.077472	385.613125	379.791255	-2657.479605	374.717062	360.302725	-2689.902571	412.854656	299.422243	-2654.440741	190.810003	292.747104	-2662.582189	192.540204	334.895489	-2704.334830	228.195396	376.381096	
